# xmcd
#
# Track frame offsets: 
#        150
#        23832
#        46449
#        57908
#        82613
#        96454
#        110112
#        127912
#        154943
#        175335
#
# Disc length: 2729 seconds
#
# Revision: 0
# Processed by: cddbd v1.5.2PL0 Copyright (c) Steve Scherf et al.
# Submitted via: ExactAudioCopy v1.0b3
#
DISCID=7d0aa70a
DTITLE=Fazıl Say and Serenad Bağcan - ilk Şarkılar
DYEAR=2013
DGENRE=Folk
TTITLE0=Düşerim, Metin Altıok
TTITLE1=Akılla Bir Konuşmam Oldu, Ömer Hayyam
TTITLE2=Dört Mevsim, Cemal Süreya
TTITLE3=Bu Kekre Dünyada, Metin Altıok
TTITLE4=Sardunyaya Ağıt, Can Yücel
TTITLE5=Sordum Sarı Çiğdeme, Pir Sultan Abdal
TTITLE6=Efkârlanırım, Orhan Veli
TTITLE7=İstanbul'u Dinliyorum, Orhan Veli
TTITLE8=Memleketim, Nâzım Hikmet Ran
TTITLE9=İnsan İnsan, Muhyiddin Abdal
EXTD=
EXTT0=
EXTT1=
EXTT2=
EXTT3=
EXTT4=
EXTT5=
EXTT6=
EXTT7=
EXTT8=
EXTT9=
PLAYORDER=
